<?xml version="1.0" encoding="UTF-8"?>
<svg id="Layer_2" xmlns="http://www.w3.org/2000/svg" viewBox="0 0 763.11 132.36">
  <defs>
    <style>
      .cls-1 {
        fill: #fdfaf5;
      }
    </style>
  </defs>
  <g>
    <path class="cls-1" d="M9.76,20.74c5.93-5.59,13.84-8.38,23.73-8.38h44.5c6.43,0,12.09,1.21,16.98,3.63,4.9,2.42,8.73,6.11,11.5,11.05,2.77,4.95,4.15,11.03,4.15,18.25v72.39h-24.62V46.48c0-3.16-.92-5.31-2.74-6.45-1.83-1.14-4.08-1.71-6.75-1.71h-41.53c-2.67,0-4.92.57-6.75,1.71-1.83,1.14-2.74,3.29-2.74,6.45v71.2H.86V45.29c0-10.78,2.97-18.96,8.9-24.55ZM39.12,66.95h33.38v24.62h-33.38v-24.62Z"/>
    <path class="cls-1" d="M134.35,20.74c5.93-5.59,13.84-8.38,23.73-8.38h46.87c9.99,0,17.92,2.5,23.81,7.49,5.88,4.99,8.83,12.49,8.83,22.47,0,5.74-1.29,10.53-3.86,14.39-2.57,3.86-6.43,6.67-11.57,8.46,5.44,1.58,9.37,4.28,11.79,8.08,2.42,3.81,3.63,8.63,3.63,14.46,0,9.99-2.94,17.48-8.83,22.47-5.88,5-13.82,7.49-23.81,7.49h-42.27v-25.96h42.27c1.88,0,3.68-.49,5.41-1.48,1.73-.99,2.6-2.72,2.6-5.19,0-2.67-.84-4.5-2.52-5.49-1.68-.99-3.51-1.48-5.49-1.48h-42.27v-25.96h43.02c1.78,0,3.43-.57,4.97-1.71,1.53-1.14,2.3-2.94,2.3-5.41s-.87-4.2-2.6-5.19c-1.73-.99-3.54-1.48-5.41-1.48h-45.39c-6.33,0-9.49,2.72-9.49,8.16v71.2h-24.62V45.29c0-10.78,2.97-18.96,8.9-24.55Z"/>
    <path class="cls-1" d="M261.32,109.29c-5.93-5.59-8.9-13.77-8.9-24.55v-39.46c0-10.78,2.97-18.96,8.9-24.55,5.93-5.59,13.84-8.38,23.73-8.38h44.05c6.43,0,12.09,1.21,16.98,3.63,4.9,2.42,8.73,6.11,11.5,11.05,2.77,4.95,4.15,11.03,4.15,18.25v39.46c0,10.78-2.97,18.96-8.9,24.55-5.93,5.59-13.85,8.38-23.73,8.38h-44.05c-9.89,0-17.8-2.79-23.73-8.38ZM334.38,90.01c1.83-1.14,2.74-3.29,2.74-6.45v-37.08c0-3.16-.92-5.31-2.74-6.45-1.83-1.14-4.08-1.71-6.75-1.71h-41.09c-2.67,0-4.92.57-6.75,1.71-1.83,1.14-2.74,3.29-2.74,6.45v37.08c0,3.17.91,5.32,2.74,6.45,1.83,1.14,4.08,1.71,6.75,1.71h41.09c2.67,0,4.92-.57,6.75-1.71Z"/>
    <path class="cls-1" d="M385.48,109.29c-5.93-5.59-8.9-13.77-8.9-24.55V12.36h24.62v71.2c0,3.17.91,5.32,2.74,6.45,1.83,1.14,4.08,1.71,6.75,1.71h41.09c2.67,0,4.92-.57,6.75-1.71,1.83-1.14,2.74-3.29,2.74-6.45V12.36h24.62v72.39c0,10.78-2.97,18.96-8.9,24.55-5.93,5.59-13.85,8.38-23.73,8.38h-44.05c-9.89,0-17.8-2.79-23.73-8.38Z"/>
    <path class="cls-1" d="M532.03,38.32h-37.23V12.36h98.94v25.96h-37.08v79.36h-24.62V38.32Z"/>
  </g>
  <path class="cls-1" d="M697.59,2.17c-35.78,0-64.78,29-64.78,64.78s29,64.79,64.78,64.79,64.79-29.01,64.79-64.79S733.37,2.17,697.59,2.17ZM726.18,69.76l-40.63,23.45c-3.64,2.11-8.21-.52-8.21-4.73v-46.92c0-4.21,4.56-6.84,8.21-4.73l40.63,23.45c3.64,2.11,3.64,7.37,0,9.48Z"/>
</svg>