<?xml version="1.0" encoding="UTF-8"?>
<svg id="Layer_2" xmlns="http://www.w3.org/2000/svg" viewBox="0 0 704.19 132.36">
  <defs>
    <style>
      .cls-1 {
        fill: #fdfaf5;
      }

      .cls-2 {
        fill: none;
        stroke: #fdfaf5;
        stroke-linecap: round;
        stroke-miterlimit: 10;
        stroke-width: 19px;
      }
    </style>
  </defs>
  <g>
    <path class="cls-1" d="M16.53,115.48c-4.84-2.39-8.62-6.03-11.36-10.92-2.74-4.88-4.1-10.89-4.1-18.03v-38.98c0-10.65,2.93-18.73,8.79-24.25,5.86-5.52,13.68-8.28,23.45-8.28h45.43c10.35,0,18.32,2.52,23.89,7.55,5.57,5.03,8.35,12.87,8.35,23.52v5.57c0,10.55-2.78,17.9-8.35,22.06-5.57,4.15-13.53,6.23-23.89,6.23h-39.86v-25.65h38.83c2.05,0,3.71-.17,4.98-.51,1.27-.34,2.25-1.03,2.93-2.05.68-1.03,1.03-2.51,1.03-4.47,0-1.76-.34-3.13-1.03-4.1-.69-.98-1.64-1.63-2.86-1.98-1.22-.34-2.71-.51-4.47-.51h-43.52c-2.64,0-4.86.56-6.67,1.69-1.81,1.12-2.71,3.25-2.71,6.37v36.64c0,3.13.9,5.25,2.71,6.37,1.81,1.12,4.03,1.69,6.67,1.69h71.81v25.65H33.31c-6.35,0-11.94-1.2-16.78-3.59Z"/>
    <path class="cls-1" d="M173.7,111.89c-4.98-5.76-7.47-13.63-7.47-23.59v-41.77c0-1.86-.59-3.64-1.76-5.35-1.17-1.71-3.13-2.56-5.86-2.56-2.44,0-4.27.9-5.5,2.71-1.22,1.81-1.83,3.54-1.83,5.2v72.54h-25.65V46.53c0-9.77,2.76-17.59,8.28-23.45,5.52-5.86,13.6-8.79,24.25-8.79s18.56,2.93,24.03,8.79c5.47,5.86,8.21,13.68,8.21,23.45v41.77c0,1.96.49,3.76,1.47,5.42.98,1.66,2.78,2.49,5.42,2.49,2.44,0,4.15-.85,5.13-2.56.98-1.71,1.47-3.49,1.47-5.35v-41.77c0-9.77,2.76-17.59,8.28-23.45,5.52-5.86,13.6-8.79,24.25-8.79s18.56,2.93,24.03,8.79c5.47,5.86,8.21,13.68,8.21,23.45v72.54h-25.65V46.53c0-1.86-.59-3.64-1.76-5.35-1.17-1.71-3.13-2.56-5.86-2.56-1.66,0-3.05.47-4.18,1.39-1.12.93-1.93,2-2.42,3.22-.49,1.22-.73,2.32-.73,3.3v41.77c0,9.87-2.54,17.71-7.62,23.52-5.08,5.81-12.9,8.72-23.45,8.72s-18.32-2.88-23.3-8.65Z"/>
    <path class="cls-1" d="M298.77,115.48c-4.84-2.39-8.62-6.03-11.36-10.92-2.74-4.88-4.1-10.89-4.1-18.03v-38.98c0-10.65,2.93-18.73,8.79-24.25,5.86-5.52,13.68-8.28,23.45-8.28h44.4c9.77,0,17.59,2.76,23.45,8.28,5.86,5.52,8.79,13.61,8.79,24.25v71.51h-24.33V48.73c0-3.13-.9-5.25-2.71-6.37-1.81-1.12-4.03-1.69-6.67-1.69h-41.47c-2.64,0-4.86.56-6.67,1.69-1.81,1.12-2.71,3.25-2.71,6.37v36.64c0,3.13.9,5.25,2.71,6.37,1.81,1.12,4.03,1.69,6.67,1.69h37.22v25.65h-38.69c-6.35,0-11.94-1.2-16.78-3.59Z"/>
    <path class="cls-1" d="M406.85,15.02h24.33v104.05h-24.33V15.02Z"/>
    <path class="cls-1" d="M454.62,110.79c-5.86-5.52-8.79-13.6-8.79-24.25V15.02h24.33v70.34c0,3.13.9,5.25,2.71,6.37,1.81,1.12,4.03,1.69,6.67,1.69h62.72v25.65h-64.19c-9.77,0-17.59-2.76-23.45-8.28Z"/>
  </g>
  <path class="cls-2" d="M650.32,99.66l-10.91,10.91c-12.05,12.05-31.58,12.05-43.62,0-12.05-12.05-12.05-31.58,0-43.62l10.91-10.91"/>
  <path class="cls-2" d="M628.5,34.23l10.91-10.91c12.05-12.05,31.58-12.05,43.62,0,12.05,12.05,12.05,31.58,0,43.62l-10.91,10.91"/>
  <line class="cls-2" x1="655.77" y1="50.59" x2="623.05" y2="83.3"/>
</svg>