<?xml version="1.0" encoding="utf-8"?>
<!-- Generator: Adobe Illustrator 28.0.0, SVG Export Plug-In . SVG Version: 6.00 Build 0)  -->
<svg version="1.1" id="Layer_1" xmlns="http://www.w3.org/2000/svg" xmlns:xlink="http://www.w3.org/1999/xlink" x="0px" y="0px"
	 viewBox="0 0 500 500" style="enable-background:new 0 0 500 500;" xml:space="preserve">
<style type="text/css">
	.st0{display:none;}
	.st1{display:inline;}
	.st2{fill:#FFFFFF;}
	.st3{font-family:'Flegrei-Regular';}
	.st4{font-size:256.7809px;}
	.st5{fill:url(#SVGID_1_);}
</style>
<g id="Layer_2_00000076599841929265986650000011359650603386488491_" class="st0">
	<g class="st1">
		
			<image style="overflow:visible;opacity:0.15;enable-background:new    ;" width="257" height="322" xlink:href="778B2267.png"  transform="matrix(1 0 0 1 225 146)">
		</image>
		<g>
			<text transform="matrix(1 0 0 1 238.7744 378.2574)" class="st2 st3 st4">W</text>
		</g>
	</g>
</g>
<g>
	<linearGradient id="SVGID_1_" gradientUnits="userSpaceOnUse" x1="4.3335" y1="250" x2="495.6665" y2="250">
		<stop  offset="2.237672e-07" style="stop-color:#67B7A2"/>
		<stop  offset="0.148" style="stop-color:#83B896"/>
		<stop  offset="0.2635" style="stop-color:#DFBA71"/>
		<stop  offset="0.3641" style="stop-color:#F4BA68"/>
		<stop  offset="0.4609" style="stop-color:#D6A184"/>
		<stop  offset="0.5466" style="stop-color:#AC7DAD"/>
		<stop  offset="0.6322" style="stop-color:#976CC1"/>
		<stop  offset="0.7328" style="stop-color:#A66AB0"/>
		<stop  offset="0.8445" style="stop-color:#DD6273"/>
		<stop  offset="1" style="stop-color:#E86067"/>
	</linearGradient>
	<path class="st5" d="M32.8,402c-19-20.1-28.4-47-28.4-80.5V72.8h88.1v248.7c0,5.7,2.1,11.7,6.3,17.9c4.2,6.2,10.5,9.3,18.9,9.3
		c6.7,0,12-1.5,15.9-4.5c3.9-3,6.5-6.6,8.1-10.8c1.5-4.2,2.3-8.1,2.3-11.8v-143c0-34.2,8.6-61.2,25.7-81
		c17.1-19.8,43.8-29.7,80-29.7c36.2,0,63.1,10,80.5,30c17.4,20,26.2,46.9,26.2,80.8v143c0,5.7,2.1,11.7,6.3,17.9
		c4.2,6.2,10.5,9.3,18.9,9.3c9.4,0,16.1-2.9,20.1-8.8c4-5.9,6-12,6-18.4V72.8h88.1v248.7c0,33.6-9.4,60.4-28.2,80.5
		c-18.8,20.1-46.3,30.2-82.6,30.2c-36.6,0-64.4-10.1-83.3-30.2c-19-20.1-28.4-47-28.4-80.5v-143c0-6.4-1.7-12.5-5-18.4
		c-3.4-5.9-9.2-8.8-17.6-8.8c-9.1,0-15.3,2.9-18.6,8.6c-3.4,5.7-5,11.9-5,18.6v143c0,33.6-9.4,60.4-28.2,80.5
		c-18.8,20.1-46.3,30.2-82.6,30.2C79.5,432.2,51.7,422.2,32.8,402z"/>
</g>
</svg>
