<?xml version="1.0" encoding="utf-8"?>
<!-- Generator: Adobe Illustrator 27.0.1, SVG Export Plug-In . SVG Version: 6.00 Build 0)  -->
<svg version="1.1" xmlns="http://www.w3.org/2000/svg" xmlns:xlink="http://www.w3.org/1999/xlink" x="0px" y="0px"
	 viewBox="0 0 500 500" style="enable-background:new 0 0 500 500;" xml:space="preserve">
<style type="text/css">
	.st0{fill:#199850;}
	.st1{fill:#963496;}
	.st2{fill:#FFB700;}
	.st3{fill:#CB3636;}
	.st4{display:none;}
	.st5{display:inline;}
	.st6{fill:#FFFFFF;}
	.st7{font-family:'Flegrei-Regular';}
	.st8{font-size:256.7809px;}
</style>
<g id="Layer_1">
	<path class="st0" d="M424.4,207.7H314.5c-12.4,0-22.4-10-22.4-22.4v-110c0-12.4,10-22.4,22.4-22.4h109.9c12.4,0,22.4,10,22.4,22.4
		v109.9C446.9,197.6,436.8,207.7,424.4,207.7z"/>
	<path class="st1" d="M222.4,235H68.9c-22.5,0-40.8-18.3-40.8-40.8V40.8C28.2,18.3,46.4,0,68.9,0h153.5c22.5,0,40.8,18.3,40.8,40.8
		v153.5C263.2,216.7,244.9,235,222.4,235z"/>
	<path class="st2" d="M453.6,427.3H249.4c-25.6,0-46.4-20.8-46.4-46.4V176.7c0-25.6,20.8-46.4,46.4-46.4h204.2
		c25.6,0,46.4,20.8,46.4,46.4v204.2C500,406.5,479.2,427.3,453.6,427.3z"/>
	<path class="st3" d="M127,500H27.7C12.4,500,0,487.6,0,472.3V373c0-15.3,12.4-27.7,27.7-27.7H127c15.3,0,27.7,12.4,27.7,27.7v99.3
		C154.8,487.6,142.4,500,127,500z"/>
</g>
<g id="Layer_2" class="st4">
	<g class="st5">
		
			<image style="overflow:visible;opacity:0.15;enable-background:new    ;" width="257" height="322" xlink:href="778B2267.png"  transform="matrix(1 0 0 1 225 146)">
		</image>
		<g>
			<text transform="matrix(1 0 0 1 238.7744 378.2574)" class="st6 st7 st8">W</text>
		</g>
	</g>
</g>
</svg>
