<?xml version="1.0" encoding="UTF-8"?>
<svg id="Layer_1" data-name="Layer 1" xmlns="http://www.w3.org/2000/svg" viewBox="0 0 87 87">
  <defs>
    <style>
      .cls-1 {
        fill: #fff;
      }
    </style>
  </defs>
  <path class="cls-1" d="M61.73,0H25.27C9.44,0,0,9.44,0,25.27V61.68c0,15.88,9.44,25.32,25.27,25.32H61.68c15.83,0,25.27-9.44,25.27-25.27V25.27c.04-15.83-9.4-25.27-25.23-25.27Zm-18.23,60.38c-9.31,0-16.88-7.57-16.88-16.88s7.57-16.88,16.88-16.88,16.88,7.57,16.88,16.88-7.57,16.88-16.88,16.88Zm25.75-39.15c-.22,.52-.52,1-.91,1.44-.43,.39-.91,.7-1.44,.91-.52,.22-1.09,.35-1.65,.35-1.17,0-2.26-.43-3.09-1.26-.39-.43-.7-.91-.91-1.44-.22-.52-.35-1.09-.35-1.65s.13-1.13,.35-1.65c.22-.57,.52-1,.91-1.44,1-1,2.52-1.48,3.91-1.17,.3,.04,.57,.13,.83,.26,.26,.09,.52,.22,.78,.39,.22,.13,.43,.35,.65,.52,.39,.43,.7,.87,.91,1.44,.22,.52,.35,1.09,.35,1.65s-.13,1.13-.35,1.65Z"/>
</svg>