<?xml version="1.0" encoding="utf-8"?>
<!-- Generator: Adobe Illustrator 28.0.0, SVG Export Plug-In . SVG Version: 6.00 Build 0)  -->
<svg version="1.1" id="Layer_1" xmlns="http://www.w3.org/2000/svg" xmlns:xlink="http://www.w3.org/1999/xlink" x="0px" y="0px"
	 viewBox="0 0 87 87" style="enable-background:new 0 0 87 87;" xml:space="preserve">
<style type="text/css">
	.st0{fill:url(#SVGID_1_);}
</style>
<linearGradient id="SVGID_1_" gradientUnits="userSpaceOnUse" x1="43.5" y1="87" x2="43.5" y2="-9.094947e-13">
	<stop  offset="0" style="stop-color:#FDFAF5"/>
	<stop  offset="0.4364" style="stop-color:#FDF8F0"/>
	<stop  offset="0.9491" style="stop-color:#FCF3E2"/>
	<stop  offset="1" style="stop-color:#FCF2E0"/>
</linearGradient>
<path class="st0" d="M61.7,0H25.3C9.4,0,0,9.4,0,25.3v36.4C0,77.6,9.4,87,25.3,87h36.4C77.5,87,87,77.6,87,61.7V25.3
	C87,9.4,77.5,0,61.7,0L61.7,0z M43.5,60.4c-9.3,0-16.9-7.6-16.9-16.9s7.6-16.9,16.9-16.9s16.9,7.6,16.9,16.9S52.8,60.4,43.5,60.4z
	 M69.2,21.2c-0.2,0.5-0.5,1-0.9,1.4s-0.9,0.7-1.4,0.9c-0.5,0.2-1.1,0.4-1.7,0.4c-1.2,0-2.3-0.4-3.1-1.3c-0.4-0.4-0.7-0.9-0.9-1.4
	s-0.3-1.1-0.3-1.6s0.1-1.1,0.3-1.6c0.2-0.6,0.5-1,0.9-1.4c1-1,2.5-1.5,3.9-1.2c0.3,0,0.6,0.1,0.8,0.3c0.3,0.1,0.5,0.2,0.8,0.4
	c0.2,0.1,0.4,0.3,0.7,0.5c0.4,0.4,0.7,0.9,0.9,1.4c0.2,0.5,0.3,1.1,0.3,1.6S69.5,20.7,69.2,21.2L69.2,21.2z"/>
</svg>
