<?xml version="1.0" encoding="UTF-8"?>
<svg id="Layer_2" xmlns="http://www.w3.org/2000/svg" viewBox="0 0 657.13 132.36">
  <defs>
    <style>
      .cls-1 {
        fill: #fdfaf5;
      }

      .cls-2 {
        fill: none;
        stroke: #fdfaf5;
        stroke-linecap: round;
        stroke-miterlimit: 10;
        stroke-width: 19px;
      }
    </style>
  </defs>
  <g>
    <path class="cls-1" d="M1.21,14.29h24.62v105.32H1.21V14.29Z"/>
    <path class="cls-1" d="M49.56,22.67c5.93-5.59,13.84-8.38,23.73-8.38h44.05c6.43,0,12.09,1.21,16.98,3.63,4.89,2.42,8.73,6.11,11.5,11.05,2.77,4.95,4.15,11.03,4.15,18.24v72.39h-24.62V48.4c0-3.16-.92-5.31-2.74-6.45-1.83-1.14-4.08-1.71-6.75-1.71h-41.09c-2.67,0-4.92.57-6.75,1.71-1.83,1.14-2.74,3.29-2.74,6.45v71.2h-24.62V47.22c0-10.78,2.97-18.96,8.9-24.55Z"/>
    <path class="cls-1" d="M167.78,93.65h70.9c1.88,0,3.68-.49,5.41-1.48,1.73-.99,2.6-2.72,2.6-5.19,0-1.88-.45-3.34-1.34-4.38-.89-1.04-1.93-1.73-3.11-2.08-1.19-.34-2.37-.52-3.56-.52h-40.05c-9.99,0-18.12-2.79-24.4-8.38-6.28-5.59-9.42-13.67-9.42-24.25s3.14-18.99,9.42-24.62c6.28-5.64,14.41-8.46,24.4-8.46h68.08v25.96h-69.27c-1.88,0-3.69.5-5.41,1.48-1.73.99-2.6,2.77-2.6,5.34s.84,4.5,2.52,5.49c1.68.99,3.51,1.48,5.49,1.48h41.24c6.43,0,12.09,1.21,16.98,3.63,4.9,2.42,8.73,6.06,11.5,10.9,2.77,4.85,4.15,10.88,4.15,18.1,0,10.78-2.97,18.96-8.9,24.55-5.93,5.59-13.85,8.38-23.73,8.38h-70.9v-25.96Z"/>
    <path class="cls-1" d="M315.96,40.25h-37.23V14.29h98.94v25.96h-37.08v79.36h-24.62V40.25Z"/>
    <path class="cls-1" d="M400.73,115.97c-4.89-2.42-8.73-6.11-11.49-11.05-2.77-4.94-4.15-11.03-4.15-18.25v-39.46c0-10.78,2.97-18.96,8.9-24.55,5.93-5.59,13.84-8.38,23.73-8.38h44.94c9.89,0,17.8,2.8,23.73,8.38,5.93,5.59,8.9,13.77,8.9,24.55v72.39h-24.62V48.4c0-3.16-.92-5.31-2.74-6.45-1.83-1.14-4.08-1.71-6.75-1.71h-41.98c-2.67,0-4.92.57-6.75,1.71-1.83,1.14-2.74,3.29-2.74,6.45v37.08c0,3.17.91,5.32,2.74,6.45,1.83,1.14,4.08,1.71,6.75,1.71h37.68v25.96h-39.16c-6.43,0-12.09-1.21-16.98-3.63Z"/>
  </g>
  <path class="cls-2" d="M603.36,99.66l-10.91,10.91c-12.05,12.05-31.58,12.05-43.62,0-12.05-12.05-12.05-31.58,0-43.62l10.91-10.91"/>
  <path class="cls-2" d="M581.55,34.23l10.91-10.91c12.05-12.05,31.58-12.05,43.62,0,12.05,12.05,12.05,31.58,0,43.62l-10.91,10.91"/>
  <line class="cls-2" x1="608.81" y1="50.59" x2="576.09" y2="83.3"/>
</svg>