<?xml version="1.0" encoding="utf-8"?>
<!-- Generator: Adobe Illustrator 27.0.1, SVG Export Plug-In . SVG Version: 6.00 Build 0)  -->
<svg version="1.1" id="Layer_5" xmlns="http://www.w3.org/2000/svg" xmlns:xlink="http://www.w3.org/1999/xlink" x="0px" y="0px"
	 viewBox="0 0 87 87" style="enable-background:new 0 0 87 87;" xml:space="preserve">
<style type="text/css">
	.st0{fill:none;stroke:#FFFFFF;stroke-width:6;stroke-linecap:round;stroke-miterlimit:10;}
	.st1{fill:#FFFFFF;}
	.st2{fill:#FFFFFF;stroke:#FFFFFF;stroke-width:4.5;stroke-linecap:round;stroke-miterlimit:10;}
</style>
<path class="st0" d="M63.6,62.2V47.9c0-2.5-1-4.9-2.8-6.7c-1.8-1.8-4.2-2.8-6.8-2.8s-5,1-6.8,2.8s-2.8,4.2-2.8,6.7v14.2"/>
<line class="st0" x1="25.3" y1="38.4" x2="25.3" y2="62.2"/>
<line class="st0" x1="44.5" y1="47.9" x2="44.5" y2="38.4"/>
<path class="st1" d="M62.2,6.5c10.1,0,18.3,8.2,18.3,18.3v37.4c0,10.1-8.2,18.3-18.3,18.3H24.8c-10.1,0-18.3-8.2-18.3-18.3V24.8
	c0-10.1,8.2-18.3,18.3-18.3H62.2 M62.2,0H24.8C11.1,0,0,11.1,0,24.8v37.4C0,75.9,11.1,87,24.8,87h37.4C75.9,87,87,75.9,87,62.2V24.8
	C87,11.1,75.9,0,62.2,0L62.2,0z"/>
<circle class="st2" cx="25.3" cy="25.3" r="1.2"/>
</svg>
