<?xml version="1.0" encoding="UTF-8"?>
<svg id="Layer_2" xmlns="http://www.w3.org/2000/svg" viewBox="0 0 661.68 132.36">
  <defs>
    <style>
      .cls-1 {
        fill: #fdfaf5;
      }

      .cls-2 {
        fill: none;
        stroke: #fdfaf5;
        stroke-linecap: round;
        stroke-miterlimit: 10;
        stroke-width: 19px;
      }
    </style>
  </defs>
  <path class="cls-2" d="M600.28,99.66l-10.91,10.91c-12.05,12.05-31.58,12.05-43.62,0-12.05-12.05-12.05-31.58,0-43.62l10.91-10.91"/>
  <path class="cls-2" d="M578.46,34.23l10.91-10.91c12.05-12.05,31.58-12.05,43.62,0,12.05,12.05,12.05,31.58,0,43.62l-10.91,10.91"/>
  <line class="cls-2" x1="605.73" y1="50.59" x2="573.01" y2="83.3"/>
  <g>
    <path class="cls-1" d="M9.71,111.28c-5.89-5.55-8.84-13.67-8.84-24.38V15.02h24.45v70.7c0,3.14.91,5.28,2.73,6.41,1.82,1.13,4.05,1.69,6.7,1.69h63.04v25.78H33.28c-9.82,0-17.68-2.77-23.57-8.32Z"/>
    <path class="cls-1" d="M108.84,15.02h24.45v104.58h-24.45V15.02Z"/>
    <path class="cls-1" d="M156.86,23.34c5.89-5.55,13.75-8.32,23.57-8.32h43.75c6.38,0,12,1.2,16.87,3.61,4.86,2.41,8.67,6.06,11.42,10.97,2.75,4.91,4.12,10.95,4.12,18.12v71.88h-24.45V48.9c0-3.14-.91-5.28-2.73-6.41-1.82-1.13-4.05-1.69-6.7-1.69h-40.8c-2.65,0-4.89.57-6.7,1.69-1.82,1.13-2.73,3.27-2.73,6.41v70.7h-24.45V47.72c0-10.7,2.95-18.83,8.84-24.38Z"/>
    <path class="cls-1" d="M271.31,15.02h24.45v39.48h31.96c2.55,0,4.71-.49,6.48-1.47,1.77-.98,2.99-2.8,3.68-5.45l8.69-32.55h24.6l-8.84,32.85c-1.47,5.5-3.9,10.12-7.29,13.85-3.39,3.73-8.62,6.38-15.69,7.95l.3-6.04c5.69,1.08,10.06,2.58,13.11,4.49,3.04,1.92,5.25,4.25,6.63,7,1.37,2.75,2.75,6.68,4.12,11.78l8.84,32.7h-25.92c-.98-3.63-1.69-6.36-2.14-8.18-.44-1.82-1.16-4.49-2.14-8.03l-4.42-16.2c-.88-2.75-2.28-4.59-4.2-5.52-1.92-.93-4.15-1.4-6.7-1.4h-31.08v39.33h-24.45V15.02Z"/>
    <path class="cls-1" d="M384.73,93.83h70.41c1.86,0,3.66-.49,5.38-1.47,1.72-.98,2.58-2.7,2.58-5.16,0-2.65-.83-4.47-2.5-5.45-1.67-.98-3.49-1.47-5.45-1.47h-40.95c-9.82,0-17.68-2.75-23.57-8.25-5.89-5.5-8.84-13.55-8.84-24.16s2.95-18.98,8.84-24.53c5.89-5.55,13.75-8.32,23.57-8.32h68.79v25.78h-68.79c-1.08,0-2.24.2-3.46.59-1.23.39-2.28,1.08-3.17,2.06-.88.98-1.33,2.36-1.33,4.12,0,2.65.83,4.47,2.5,5.45,1.67.98,3.48,1.47,5.45,1.47h40.95c9.82,0,17.68,2.75,23.57,8.25,5.89,5.5,8.84,13.55,8.84,24.16s-2.95,18.83-8.84,24.38c-5.89,5.55-13.75,8.32-23.57,8.32h-70.41v-25.78Z"/>
  </g>
</svg>