<?xml version="1.0" encoding="UTF-8"?>
<svg id="Layer_2" xmlns="http://www.w3.org/2000/svg" viewBox="0 0 950.53 132.36">
  <defs>
    <style>
      .cls-1 {
        fill: #fdfaf5;
      }

      .cls-2 {
        fill: none;
        stroke: #fdfaf5;
        stroke-linecap: round;
        stroke-miterlimit: 10;
        stroke-width: 19px;
      }
    </style>
  </defs>
  <g>
    <path class="cls-1" d="M10.58,111.22c-5.93-5.59-8.9-13.77-8.9-24.55V14.29h24.62v71.2c0,3.17.91,5.32,2.74,6.45,1.83,1.14,4.08,1.71,6.75,1.71h63.49v25.96H34.32c-9.89,0-17.8-2.79-23.73-8.38Z"/>
    <path class="cls-1" d="M110.41,14.29h24.62v105.32h-24.62V14.29Z"/>
    <path class="cls-1" d="M158.76,22.67c5.93-5.59,13.84-8.38,23.73-8.38h44.05c6.43,0,12.09,1.21,16.98,3.63,4.89,2.42,8.73,6.11,11.5,11.05,2.77,4.95,4.15,11.03,4.15,18.24v72.39h-24.62V48.4c0-3.16-.92-5.31-2.74-6.45-1.83-1.14-4.08-1.71-6.75-1.71h-41.09c-2.67,0-4.92.57-6.75,1.71-1.83,1.14-2.74,3.29-2.74,6.45v71.2h-24.62V47.22c0-10.78,2.97-18.96,8.9-24.55Z"/>
    <path class="cls-1" d="M274.01,14.29h24.62v39.75h32.19c2.57,0,4.75-.49,6.53-1.48,1.78-.99,3.02-2.82,3.71-5.49l8.75-32.78h24.77l-8.9,33.08c-1.48,5.54-3.93,10.19-7.34,13.94-3.41,3.76-8.68,6.43-15.8,8.01l.3-6.08c5.73,1.09,10.14,2.6,13.2,4.52,3.06,1.93,5.29,4.28,6.68,7.05,1.38,2.77,2.77,6.73,4.15,11.87l8.9,32.93h-26.11c-.99-3.66-1.71-6.4-2.15-8.23-.44-1.83-1.16-4.52-2.15-8.08l-4.45-16.32c-.89-2.77-2.3-4.62-4.23-5.56-1.93-.94-4.18-1.41-6.75-1.41h-31.3v39.6h-24.62V14.29Z"/>
    <path class="cls-1" d="M400.91,115.97c-4.89-2.42-8.73-6.11-11.49-11.05-2.77-4.94-4.15-11.03-4.15-18.25v-39.46c0-10.78,2.97-18.96,8.9-24.55,5.93-5.59,13.84-8.38,23.73-8.38h45.98c10.48,0,18.54,2.55,24.18,7.64,5.64,5.09,8.45,13.03,8.45,23.81v5.64c0,10.68-2.82,18.12-8.45,22.32-5.64,4.2-13.7,6.3-24.18,6.3h-40.35v-25.96h39.31c2.08,0,3.76-.17,5.04-.52,1.28-.34,2.27-1.04,2.97-2.08.69-1.04,1.04-2.54,1.04-4.52,0-1.78-.35-3.16-1.04-4.15-.69-.99-1.66-1.65-2.89-2-1.24-.35-2.74-.52-4.52-.52h-44.05c-2.67,0-4.92.57-6.75,1.71-1.83,1.14-2.74,3.29-2.74,6.45v37.08c0,3.17.91,5.32,2.74,6.45,1.83,1.14,4.08,1.71,6.75,1.71h72.68v25.96h-74.17c-6.43,0-12.09-1.21-16.98-3.63Z"/>
    <path class="cls-1" d="M520.24,22.67c5.93-5.59,13.84-8.38,23.73-8.38h47.02c6.43,0,12.09,1.21,16.98,3.63,4.89,2.42,8.73,6.11,11.49,11.05,2.77,4.95,4.15,11.03,4.15,18.24v39.46c0,10.78-2.97,18.96-8.9,24.55-5.93,5.59-13.84,8.38-23.73,8.38h-41.24v-25.96h39.75c2.67,0,4.92-.57,6.75-1.71,1.83-1.14,2.74-3.29,2.74-6.45v-37.08c0-3.16-.91-5.31-2.74-6.45-1.83-1.14-4.08-1.71-6.75-1.71h-44.05c-2.67,0-4.92.57-6.75,1.71-1.83,1.14-2.74,3.29-2.74,6.45v71.2h-24.62V47.22c0-10.78,2.97-18.96,8.9-24.55Z"/>
    <path class="cls-1" d="M638.46,14.29h24.62v105.32h-24.62V14.29Z"/>
    <path class="cls-1" d="M686.82,22.67c5.93-5.59,13.84-8.38,23.73-8.38h44.05c6.43,0,12.09,1.21,16.98,3.63,4.89,2.42,8.73,6.11,11.5,11.05,2.77,4.95,4.15,11.03,4.15,18.24v72.39h-24.62V48.4c0-3.16-.92-5.31-2.74-6.45-1.83-1.14-4.08-1.71-6.75-1.71h-41.09c-2.67,0-4.92.57-6.75,1.71-1.83,1.14-2.74,3.29-2.74,6.45v71.2h-24.62V47.22c0-10.78,2.97-18.96,8.9-24.55Z"/>
  </g>
  <path class="cls-2" d="M895.3,99.66l-10.91,10.91c-12.05,12.05-31.58,12.05-43.62,0-12.05-12.05-12.05-31.58,0-43.62l10.91-10.91"/>
  <path class="cls-2" d="M873.49,34.23l10.91-10.91c12.05-12.05,31.58-12.05,43.62,0,12.05,12.05,12.05,31.58,0,43.62l-10.91,10.91"/>
  <line class="cls-2" x1="900.75" y1="50.59" x2="868.04" y2="83.3"/>
</svg>