<?xml version="1.0" encoding="UTF-8"?>
<svg id="Layer_4" data-name="Layer 4" xmlns="http://www.w3.org/2000/svg" viewBox="0 0 87 87">
  <defs>
    <style>
      .cls-1 {
        fill: none;
        stroke: #fff;
        stroke-linecap: round;
        stroke-linejoin: round;
        stroke-width: 6.47px;
      }

      .cls-2 {
        fill: #fff;
      }
    </style>
  </defs>
  <path class="cls-2" d="M65.25,12.69c10.57,0,15.28,4.8,15.28,15.58v30.87c0,10.77-4.71,15.58-15.28,15.58H21.75c-10.57,0-15.28-4.8-15.28-15.58V28.27c0-10.77,4.71-15.58,15.28-15.58h43.5m0-6.47H21.75C8.7,6.22,0,12.83,0,28.27v30.87c0,15.43,8.7,22.05,21.75,22.05h43.5c13.05,0,21.75-6.61,21.75-22.05V28.27c0-15.43-8.7-22.05-21.75-22.05h0Z"/>
  <path class="cls-1" d="M65.07,29.95l-13.5,10.79c-4.44,3.54-11.73,3.54-16.18,0l-13.46-10.79"/>
</svg>