<?xml version="1.0" encoding="utf-8"?>
<!-- Generator: Adobe Illustrator 28.0.0, SVG Export Plug-In . SVG Version: 6.00 Build 0)  -->
<svg version="1.1" id="Layer_1" xmlns="http://www.w3.org/2000/svg" xmlns:xlink="http://www.w3.org/1999/xlink" x="0px" y="0px"
	 viewBox="0 0 87 87" style="enable-background:new 0 0 87 87;" xml:space="preserve">
<style type="text/css">
	.st0{display:none;}
	.st1{display:inline;stroke:#FFFFFF;stroke-miterlimit:10;}
	.st2{display:inline;fill:none;}
	.st3{fill:#FCF2E0;}
</style>
<g id="Layer_2_00000132769933083158722650000017876614021960601244_" class="st0">
	<rect class="st1" width="87" height="87"/>
</g>
<g id="Layer_3" class="st0">
	<path class="st2" d="M62.2,36.7L40.5,24.2c-5.3-3.1-12,0.8-12,6.9v25c0,6.1,6.7,10,12,6.9l21.7-12.5C67.5,47.5,67.5,39.8,62.2,36.7
		z M62.2,36.7L40.5,24.2c-5.3-3.1-12,0.8-12,6.9v25c0,6.1,6.7,10,12,6.9l21.7-12.5C67.5,47.5,67.5,39.8,62.2,36.7z"/>
</g>
<g id="Layer_4">
	<path class="st3" d="M43.5,0C19.5,0,0,19.5,0,43.5S19.5,87,43.5,87S87,67.5,87,43.5S67.5,0,43.5,0z M62.2,50.5L40.5,63.1
		c-5.3,3.1-12-0.8-12-6.9v-25c0-6.1,6.7-10,12-6.9l21.7,12.5C67.5,39.8,67.5,47.5,62.2,50.5z"/>
</g>
</svg>
