<?xml version="1.0" encoding="UTF-8"?>
<svg id="Layer_3" data-name="Layer 3" xmlns="http://www.w3.org/2000/svg" viewBox="0 0 87 87">
  <defs>
    <style>
      .cls-1 {
        fill: #fff;
      }
    </style>
  </defs>
  <path class="cls-1" d="M43.5,0C19.47,0,0,19.48,0,43.5s19.47,43.5,43.5,43.5,43.5-19.47,43.5-43.5S67.52,0,43.5,0Zm13.65,52.36l-12.61,7.26c-1.56,.92-3.26,1.35-5,1.35s-3.44-.43-5-1.35c-3.14-1.83-5-5.08-5-8.69v-14.58c0-3.65,1.87-6.87,5-8.69s6.92-1.83,10.05,0l12.61,7.26c3.18,1.83,5.04,5.09,4.95,8.74,0,3.66-1.87,6.88-5,8.7Z"/>
</svg>