<?xml version="1.0" encoding="UTF-8"?>
<svg id="Layer_2" xmlns="http://www.w3.org/2000/svg" viewBox="0 0 670.57 132.36">
  <defs>
    <style>
      .cls-1 {
        fill: #fdfaf5;
      }
    </style>
  </defs>
  <g>
    <path class="cls-1" d="M10.27,22.67c5.93-5.59,13.84-8.38,23.73-8.38h44.2c9.89,0,17.8,2.79,23.73,8.38,5.93,5.59,8.9,13.82,8.9,24.7s-2.97,18.79-8.9,24.33c-5.93,5.54-13.85,8.31-23.73,8.31h-5.93c-2.57,0-4.55.45-5.93,1.33-1.39.89-2.08,2.62-2.08,5.19,0,2.77.84,4.65,2.52,5.64,1.68.99,4,1.48,6.97,1.48h35.75v25.96h-37.23c-9.89,0-17.8-2.79-23.73-8.38-5.93-5.59-8.9-13.77-8.9-24.55s2.84-18.91,8.53-24.4c5.69-5.49,13.72-8.23,24.1-8.23h5.93c1.98,0,3.81-.49,5.49-1.48,1.68-.99,2.52-2.82,2.52-5.49s-.87-4.35-2.6-5.34c-1.73-.99-3.54-1.48-5.41-1.48h-42.72c-2.67,0-4.92.57-6.75,1.71-1.83,1.14-2.74,3.34-2.74,6.6v71.05H1.37V47.37c0-10.88,2.97-19.11,8.9-24.7Z"/>
    <path class="cls-1" d="M141.33,115.97c-4.9-2.42-8.73-6.11-11.5-11.05-2.77-4.94-4.15-11.03-4.15-18.25v-39.46c0-10.78,2.97-18.96,8.9-24.55,5.93-5.59,13.84-8.38,23.73-8.38h45.98c10.48,0,18.54,2.55,24.18,7.64,5.64,5.09,8.46,13.03,8.46,23.81v5.64c0,10.68-2.82,18.12-8.46,22.32-5.64,4.2-13.7,6.3-24.18,6.3h-40.35v-25.96h39.31c2.08,0,3.76-.17,5.04-.52,1.28-.34,2.27-1.04,2.97-2.08.69-1.04,1.04-2.54,1.04-4.52,0-1.78-.35-3.16-1.04-4.15-.69-.99-1.66-1.65-2.89-2-1.24-.35-2.74-.52-4.52-.52h-44.05c-2.67,0-4.92.57-6.75,1.71-1.83,1.14-2.74,3.29-2.74,6.45v37.08c0,3.17.91,5.32,2.74,6.45,1.83,1.14,4.08,1.71,6.75,1.71h72.68v25.96h-74.17c-6.43,0-12.09-1.21-16.98-3.63Z"/>
    <path class="cls-1" d="M260.66,111.22c-5.93-5.59-8.9-13.77-8.9-24.55V14.29h24.62v71.2c0,3.17.91,5.32,2.74,6.45,1.83,1.14,4.08,1.71,6.75,1.71h63.49v25.96h-64.97c-9.89,0-17.8-2.79-23.73-8.38Z"/>
    <path class="cls-1" d="M360.48,14.29h24.62v105.32h-24.62V14.29Z"/>
    <path class="cls-1" d="M415.59,115.97c-4.89-2.42-8.73-6.11-11.5-11.05-2.77-4.94-4.15-11.03-4.15-18.25v-39.46c0-10.78,2.97-18.96,8.9-24.55,5.93-5.59,13.84-8.38,23.73-8.38h67.19v25.96h-65.71c-2.67,0-4.92.57-6.75,1.71-1.83,1.14-2.74,3.29-2.74,6.45v37.08c0,3.17.91,5.32,2.74,6.45,1.83,1.14,4.08,1.71,6.75,1.71h65.71v25.96h-67.19c-6.43,0-12.09-1.21-16.98-3.63Z"/>
  </g>
  <path class="cls-1" d="M603.62,2.17c-35.78,0-64.78,29-64.78,64.78s29,64.79,64.78,64.79,64.79-29.01,64.79-64.79S639.4,2.17,603.62,2.17ZM632.21,69.76l-40.63,23.45c-3.64,2.11-8.21-.52-8.21-4.73v-46.92c0-4.21,4.56-6.84,8.21-4.73l40.63,23.45c3.64,2.11,3.64,7.37,0,9.48Z"/>
</svg>